#!OML:ASF H:\Punching\Project 1\Capture day 1\Session 1\female.ASF
:FULLY-SPECIFIED
:DEGREES
284
root -0.103193 14.9208 -1.83234 7.80516 -0.891581 -0.636982
lowerback 3.02603 -0.765126 0.405155
upperback -5.87418 -1.02993 -0.390719
thorax -7.85635 -0.546184 -0.535748
lowerneck -12.7955 1.25539 8.28624
upperneck 28.2919 0.601104 -3.17204
head 11.3436 0.758963 -2.51226
rclavicle 7.56624e-015 -1.0138e-014
rhumerus 31.6107 11.4726 -62.4688
rradius 65.6325
rwrist 0.255733
rhand 30.3654 -34.9284
rfingers 7.12502
rthumb 54.0352 -53.7426
lclavicle 7.56624e-015 -1.0138e-014
lhumerus 27.5305 -9.78477 56.7515
lradius 79.7732
lwrist -9.20008
lhand 34.8421 25.3531
lfingers 7.12502
lthumb 57.9996 41.0749
rfemur -26.5082 -4.9667 16.5474
rtibia 50.1148
rfoot -28.0687 -8.82816
rtoes -12.7924
lfemur -27.4499 1.75279 -16.9811
ltibia 50.2744
lfoot -25.4531 9.61217
ltoes -13.0425
285
root -0.10408 14.9217 -1.83254 7.81941 -0.896142 -0.673835
lowerback 2.97556 -0.758476 0.446871
upperback -5.85497 -1.01814 -0.390941
thorax -7.80669 -0.542805 -0.561309
lowerneck -12.8044 1.25506 8.28724
upperneck 28.3625 0.618238 -3.23506
head 11.3733 0.760631 -2.53494
rclavicle 9.6659e-015 -7.95139e-016
rhumerus 31.6415 11.4795 -62.4079
rradius 65.6401
rwrist 0.189144
rhand 30.3453 -34.9527
rfingers 7.12502
rthumb 54.0172 -53.7791
lclavicle 9.6659e-015 -7.95139e-016
lhumerus 27.55 -9.81055 56.7721
lradius 79.7566
lwrist -9.21585
lhand 34.8423 25.3365
lfingers 7.12502
lthumb 57.9997 41.0581
rfemur -26.5131 -4.94384 16.5928
rtibia 50.0889
rfoot -28.0527 -8.83035
rtoes -12.6968
lfemur -27.4681 1.75418 -16.9351
ltibia 50.2728
lfoot -25.4436 9.61915
ltoes -13.0558
286
root -0.105524 14.9218 -1.83233 7.82999 -0.908314 -0.68244
lowerback 2.98846 -0.770452 0.428913
upperback -5.87298 -1.03439 -0.373925
thorax -7.83324 -0.54923 -0.531514
lowerneck -12.8202 1.27449 8.29158
upperneck 28.485 0.673994 -3.33777
head 11.427 0.776289 -2.56893
rclavicle -1.30825e-014 7.55382e-015
rhumerus 31.6504 11.5849 -62.3218
rradius 65.69
rwrist 0.129074
rhand 30.3279 -34.9761
rfingers 7.12502
rthumb 54.0015 -53.8131
lclavicle -1.30825e-014 7.55382e-015
lhumerus 27.5001 -9.81852 56.7768
lradius 79.7621
lwrist -9.22265
lhand 34.8076 25.325
lfingers 7.12502
lthumb 57.9695 41.0737
rfemur -26.5185 -4.93358 16.6097
rtibia 50.0671
rfoot -28.0403 -8.84211
rtoes -12.7783
lfemur -27.474 1.75917 -16.9205
ltibia 50.2655
lfoot -25.4379 9.6217
ltoes -13.0657
287
root -0.105898 14.9226 -1.83055 7.8234 -0.892644 -0.67101
lowerback 3.00141 -0.784588 0.414442
upperback -5.88646 -1.05405 -0.368319
thorax -7.85526 -0.557902 -0.515326
lowerneck -12.8206 1.29887 8.29305
upperneck 28.6096 0.734562 -3.4238
head 11.479 0.795984 -2.59564
rclavicle 1.01007e-014 -1.15295e-014
rhumerus 31.6287 11.6406 -62.2987
rradius 65.7062
rwrist 0.108126
rhand 30.2802 -34.9786
rfingers 7.12502
rthumb 53.9587 -53.8445
lclavicle 1.01007e-014 -1.15295e-014
lhumerus 27.4719 -9.85475 56.7808
lradius 79.7697
lwrist -9.23393
lhand 34.7818 25.3087
lfingers 7.12502
lthumb 57.9469 41.0776
rfemur -26.4803 -4.96026 16.5954
rtibia 50.0423
rfoot -28.0703 -8.82092
rtoes -12.7195
lfemur -27.4479 1.74083 -16.9309
ltibia 50.251
lfoot -25.4473 9.62903
ltoes -13.0744
288
root -0.107611 14.924 -1.83052 7.835 -0.925573 -0.669176
lowerback 2.99335 -0.776871 0.394184
upperback -5.88259 -1.04545 -0.373424
thorax -7.84595 -0.552613 -0.510322
lowerneck -12.8836 1.3186 8.31989
upperneck 28.7538 0.779115 -3.51936
head 11.5507 0.810017 -2.63312
rclavicle -2.84511e-015 3.97569e-016
rhumerus 31.6443 11.6157 -62.3751
rradius 65.6531
rwrist 0.187137
rhand 30.2783 -34.923
rfingers 7.12502
rthumb 53.957 -53.79
lclavicle -2.84511e-015 3.97569e-016
lhumerus 27.4439 -9.87845 56.791
lradius 79.7516
lwrist -9.26801
lhand 34.7093 25.2173
lfingers 7.12502
lthumb 57.8837 41.0426
rfemur -26.4937 -4.91774 16.6008
rtibia 50.02
rfoot -28.0531 -8.83163
rtoes -12.683
lfemur -27.4419 1.75674 -16.9274
ltibia 50.23
lfoot -25.4496 9.64684
ltoes -13.0776
289
root -0.10818 14.9246 -1.82987 7.8408 -0.926717 -0.695539
lowerback 2.97314 -0.776539 0.428474
upperback -5.87403 -1.04257 -0.372296
thorax -7.82548 -0.553188 -0.528963
lowerneck -12.9348 1.33156 8.30521
upperneck 28.893 0.813586 -3.57333
head 11.6173 0.820014 -2.64924
rclavicle -4.72114e-015 1.59028e-015
rhumerus 31.698 11.6537 -62.2822
rradius 65.6646
rwrist 0.102244
rhand 30.2059 -34.8886
rfingers 7.12502
rthumb 53.892 -53.7994
lclavicle -4.72114e-015 1.59028e-015
lhumerus 27.4563 -9.91238 56.7786
lradius 79.7463
lwrist -9.28703
lhand 34.6717 25.2175
lfingers 7.12502
lthumb 57.8508 41.072
rfemur -26.4854 -4.91228 16.6293
rtibia 49.9909
rfoot -28.0323 -8.82416
rtoes -12.6906
lfemur -27.4376 1.75304 -16.8965
ltibia 50.2143
lfoot -25.4487 9.66168
ltoes -13.0577
290
root -0.109804 14.9257 -1.82954 7.84585 -0.938689 -0.699704
lowerback 2.99287 -0.772875 0.415858
upperback -5.882 -1.03861 -0.373744
thorax -7.84536 -0.550568 -0.523474
lowerneck -13.0176 1.35174 8.33203
upperneck 29.0596 0.857561 -3.66884
head 11.7025 0.834026 -2.68758
rclavicle 4.83295e-015 -6.95746e-015
rhumerus 31.6828 11.6372 -62.346
rradius 65.6369
rwrist 0.152869
rhand 30.1238 -34.8052
rfingers 7.12502
rthumb 53.8182 -53.7654
lclavicle 4.83295e-015 -6.95746e-015
lhumerus 27.4693 -9.94661 56.7917
lradius 79.7376
lwrist -9.30969
lhand 34.5945 25.1765
lfingers 7.12502
lthumb 57.7833 41.0908
rfemur -26.4742 -4.89785 16.64
rtibia 49.9661
rfoot -28.0449 -8.82045
rtoes -12.6881
lfemur -27.4258 1.76407 -16.8865
ltibia 50.1934
lfoot -25.4507 9.66721
ltoes -13.0767
291
root -0.110714 14.9263 -1.82875 7.8551 -0.924938 -0.711102
lowerback 2.98467 -0.782863 0.419987
upperback -5.8894 -1.05125 -0.365592
thorax -7.84865 -0.556787 -0.516055
lowerneck -13.0324 1.39057 8.35747
upperneck 29.1849 0.937301 -3.77015
head 11.7605 0.862744 -2.72199
rclavicle 3.66509e-015 -4.17448e-015
rhumerus 31.6827 11.6668 -62.3348
rradius 65.6572
rwrist 0.164495
rhand 30.0324 -34.7512
rfingers 7.12502
rthumb 53.7361 -53.7661
lclavicle 3.66509e-015 -4.17448e-015
lhumerus 27.4405 -9.97184 56.7933
lradius 79.7493
lwrist -9.2857
lhand 34.652 25.2363
lfingers 7.12502
lthumb 57.8336 41.1061
rfemur -26.4636 -4.91094 16.6604
rtibia 49.9383
rfoot -28.0348 -8.83227
rtoes -12.6925
lfemur -27.4252 1.74124 -16.8699
ltibia 50.1782
lfoot -25.4481 9.68795
ltoes -13.1402
292
root -0.112042 14.927 -1.82784 7.85717 -0.929069 -0.710368
lowerback 2.97404 -0.785872 0.407966
upperback -5.88897 -1.05612 -0.365084
thorax -7.84178 -0.558442 -0.508467
lowerneck -13.0104 1.41112 8.36471
upperneck 29.2667 0.995444 -3.8605
head 11.7921 0.880292 -2.7511
rclavicle 7.82715e-016 -8.94531e-015
rhumerus 31.6884 11.6791 -62.3358
rradius 65.6649
rwrist 0.167776
rhand 30.0946 -34.7701
rfingers 7.12502
rthumb 53.792 -53.7478
lclavicle 7.82715e-016 -8.94531e-015
lhumerus 27.4498 -9.99697 56.7959
lradius 79.7427
lwrist -9.2709
lhand 34.647 25.2425
lfingers 7.12502
lthumb 57.8292 41.1162
rfemur -26.4469 -4.90517 16.6632
rtibia 49.9175
rfoot -28.0375 -8.83032
rtoes -12.6068
lfemur -27.409 1.72936 -16.8654
ltibia 50.157
lfoot -25.4556 9.68911
ltoes -13.055
293
root -0.113096 14.928 -1.82712 7.85603 -0.93928 -0.71763
lowerback 2.98759 -0.782205 0.415955
upperback -5.88663 -1.05125 -0.374505
thorax -7.84748 -0.556854 -0.523126
lowerneck -13.0189 1.44389 8.40443
upperneck 29.344 1.05979 -3.94971
head 11.8294 0.904112 -2.78459
rclavicle -6.1499e-015 -8.15017e-015
rhumerus 31.7251 11.6731 -62.332
rradius 65.6479
rwrist 0.162168
rhand 30.0695 -34.7385
rfingers 7.12502
rthumb 53.7694 -53.7312
lclavicle -6.1499e-015 -8.15017e-015
lhumerus 27.4561 -10.0318 56.7801
lradius 79.7503
lwrist -9.27017
lhand 34.6399 25.2265
lfingers 7.12502
lthumb 57.823 41.1057
rfemur -26.4425 -4.90053 16.6783
rtibia 49.8991
rfoot -28.0352 -8.83488
rtoes -12.6599
lfemur -27.388 1.7302 -16.8547
ltibia 50.1287
lfoot -25.4401 9.7183
ltoes -13.0979
294
root -0.114402 14.9285 -1.82722 7.8715 -0.934063 -0.732992
lowerback 2.9913 -0.78505 0.4226
upperback -5.89236 -1.0542 -0.368078
thorax -7.85588 -0.558506 -0.519722
lowerneck -12.9985 1.47016 8.42381
upperneck 29.3925 1.12715 -4.05339
head 11.8493 0.924789 -2.81893
rclavicle 9.6659e-015 6.36111e-015
rhumerus 31.7307 11.6821 -62.3247
rradius 65.6749
rwrist 0.152699
rhand 30.0142 -34.741
rfingers 7.12502
rthumb 53.7197 -53.7668
lclavicle 9.6659e-015 6.36111e-015
lhumerus 27.4749 -10.0487 56.7769
lradius 79.7533
lwrist -9.2715
lhand 34.5817 25.2344
lfingers 7.12502
lthumb 57.7721 41.1586
rfemur -26.4485 -4.89691 16.7003
rtibia 49.8827
rfoot -28.0308 -8.82387
rtoes -12.5652
lfemur -27.4007 1.72546 -16.8316
ltibia 50.109
lfoot -25.4207 9.70951
ltoes -13.0404
295
root -0.114989 14.9303 -1.82613 7.88034 -0.940972 -0.672125
lowerback 3.0014 -0.784762 0.363618
upperback -5.90109 -1.05958 -0.392095
thorax -7.87063 -0.558468 -0.51116
lowerneck -12.9538 1.51163 8.46353
upperneck 29.4044 1.21183 -4.15184
head 11.8516 0.955667 -2.85152
rclavicle -3.5657e-015 -1.05356e-014
rhumerus 31.7566 11.6973 -62.3079
rradius 65.6654
rwrist 0.16376
rhand 29.9891 -34.7003
rfingers 7.12502
rthumb 53.6971 -53.741
lclavicle -3.5657e-015 -1.05356e-014
lhumerus 27.4638 -10.0735 56.7801
lradius 79.7633
lwrist -9.2837
lhand 34.6141 25.2161
lfingers 7.12502
lthumb 57.8005 41.1152
rfemur -26.4524 -4.9166 16.6336
rtibia 49.871
rfoot -28.0249 -8.79817
rtoes -12.5596
lfemur -27.3854 1.70936 -16.9005
ltibia 50.0745
lfoot -25.4185 9.72916
ltoes -13.0621
296
root -0.117031 14.9308 -1.82661 7.88877 -0.950239 -0.716334
lowerback 2.98799 -0.780592 0.395874
upperback -5.88171 -1.05107 -0.383309
thorax -7.84217 -0.555845 -0.521166
lowerneck -12.9339 1.54051 8.48394
upperneck 29.4124 1.27995 -4.24729
head 11.8559 0.977032 -2.88194
rclavicle -8.93289e-015 -1.07344e-014
rhumerus 31.7937 11.6809 -62.2983
rradius 65.6781
rwrist 0.168965
rhand 29.9694 -34.6677
rfingers 7.12502
rthumb 53.6795 -53.7201
lclavicle -8.93289e-015 -1.07344e-014
lhumerus 27.5096 -10.0715 56.7697
lradius 79.7604
lwrist -9.28174
lhand 34.5714 25.2094
lfingers 7.12502
lthumb 57.7632 41.1414
rfemur -26.4565 -4.888 16.6975
rtibia 49.8525
rfoot -28.0141 -8.82657
rtoes -12.6025
lfemur -27.3876 1.71899 -16.8391
ltibia 50.0577
lfoot -25.4069 9.71798
ltoes -13.0184
297
root -0.119087 14.9327 -1.82566 7.92463 -0.949671 -0.696261
lowerback 2.95902 -0.832193 0.317425
upperback -5.94673 -1.1218 -0.318073
thorax -7.89337 -0.583891 -0.401791
lowerneck -12.7408 1.62258 8.47197
upperneck 29.4645 1.47534 -4.42535
head 11.8517 1.04384 -2.9212
rclavicle -7.35503e-015 4.37326e-015
rhumerus 31.8292 11.8972 -62.2871
rradius 65.7391
rwrist 0.0654327
rhand 30.0713 -34.9314
rfingers 7.12502
rthumb 53.771 -53.9231
lclavicle -7.35503e-015 4.37326e-015
lhumerus 27.2774 -9.97272 56.8241
lradius 79.7766
lwrist -9.29902
lhand 34.5827 25.1434
lfingers 7.12502
lthumb 57.7731 41.0667
rfemur -26.4899 -4.8862 16.6879
rtibia 49.8389
rfoot -27.9983 -8.83448
rtoes -12.5951
lfemur -27.4073 1.71542 -16.8522
ltibia 50.0263
lfoot -25.3717 9.68582
ltoes -12.8688
298
root -0.119261 14.9334 -1.82412 7.89683 -0.942818 -0.693537
lowerback 2.98515 -0.779068 0.376599
upperback -5.86717 -1.05136 -0.398882
thorax -7.82475 -0.555303 -0.526828
lowerneck -13.0128 1.62506 8.5989
upperneck 29.5806 1.44927 -4.51216
head 11.9537 1.03576 -2.9833
rclavicle 7.71533e-015 9.14409e-015
rhumerus 31.878 11.6894 -62.236
rradius 65.6905
rwrist 0.117076
rhand 29.8567 -34.6589
rfingers 7.12502
rthumb 53.5781 -53.7783
lclavicle 7.71533e-015 9.14409e-015
lhumerus 27.543 -10.0705 56.7851
lradius 79.8051
lwrist -9.293
lhand 34.6034 25.2189
lfingers 7.12502
lthumb 57.7911 41.1263
rfemur -26.4357 -4.89737 16.6808
rtibia 49.8182
rfoot -28.0127 -8.81376
rtoes -12.5719
lfemur -27.3602 1.69887 -16.8538
ltibia 50.0137
lfoot -25.4007 9.71018
ltoes -13.0087
